<?xml version="1.0" encoding="utf-8"?>
<svg xmlns="http://www.w3.org/2000/svg" viewBox="223.626 77.629 21.97 23.841">
  <path d="M 230.611 94.485 L 237.641 101.459 L 223.581 101.459 L 230.611 94.485 Z" fill="#03ADF0" style="stroke-width: 1;"/>
  <path d="M 238.566 84.617 L 231.536 77.643 L 245.596 77.643 L 238.566 84.617 Z" fill="#03ADF0" style="stroke-width: 1;"/>
  <path d="M 245.626 93.546 L 238.595 100.524 L 231.564 93.546 L 233.111 92.011 C 233.547 92.286 234.063 92.446 234.618 92.446 C 236.174 92.446 237.436 91.194 237.436 89.65 C 237.436 89.099 237.274 88.586 236.997 88.153 L 238.595 86.568 L 245.626 93.546 Z" fill="#03ADF0" style="stroke-width: 1;"/>
  <path d="M 237.658 85.637 L 236.044 87.238 C 235.626 86.994 235.139 86.854 234.618 86.854 C 233.062 86.854 231.802 88.106 231.802 89.65 C 231.802 90.166 231.943 90.649 232.189 91.064 L 230.627 92.615 L 223.596 85.637 L 230.627 78.66 L 237.658 85.637 Z" fill="#03ADF0" style="stroke-width: 1;"/>
</svg>